<svg xmlns="http://www.w3.org/2000/svg" width="23.147" height="23.147" viewBox="0 0 23.147 23.147"><defs><style>.a{fill:#522118;}</style></defs><path class="a" d="M25.717,12.055H23.436a9.426,9.426,0,0,0-7.845-7.845V1.928H12.7V4.209a9.426,9.426,0,0,0-7.845,7.845H2.571v2.893H4.852A9.426,9.426,0,0,0,12.7,22.793v2.281h2.893V22.793a9.426,9.426,0,0,0,7.845-7.845h2.281V12.055Zm-5.226,0H18.237a4.352,4.352,0,0,0-2.646-2.646V7.154A6.531,6.531,0,0,1,20.492,12.055Zm-6.348,2.893A1.447,1.447,0,1,1,15.591,13.5,1.447,1.447,0,0,1,14.144,14.948ZM12.7,7.154V9.409a4.352,4.352,0,0,0-2.646,2.646H7.8A6.531,6.531,0,0,1,12.7,7.154ZM7.8,14.948h2.255A4.352,4.352,0,0,0,12.7,17.594v2.255A6.531,6.531,0,0,1,7.8,14.948Zm7.794,4.9V17.594a4.352,4.352,0,0,0,2.646-2.646h2.255A6.531,6.531,0,0,1,15.591,19.849Z" transform="translate(-2.571 -1.928)"/></svg>