<svg xmlns="http://www.w3.org/2000/svg" width="31.308" height="22.63" viewBox="0 0 31.308 22.63" fill="#f5ebdc" class="injected-svg" data-src="/assets/icons/order-delivery.svg" xmlns:xlink="http://www.w3.org/1999/xlink">
	<g transform="translate(0 0)">
		<path d="M1274.8,272.431c-.275,3.532,3.15,6.364,6.691,3.015a6.025,6.025,0,0,0,.721-.822,8.09,8.09,0,0,0,1.119-2.138c-1.594,0-3.055-.01-4.853-.026-1.068-.009-2.262-.02-3.678-.029" transform="translate(-1271.698 -254.313)"></path>
		<path d="M1313.84,268.743a1.216,1.216,0,0,0-.564.309,3.976,3.976,0,0,0,.25,2.644c2.26,4.1,7.519.925,7.947-3.085-1.816-.035-5.649.018-7.633.132" transform="translate(-1291.983 -252.288)"></path>
		<path d="M1299.146,246.267c-.74-2-2.91-3.112-4.785-3.6l-.216-.054c-.88-1.4-1.734-2.629-2.5-4.126a2,2,0,0,0,.266.088c.626.162,1.482.129,1.479-.1a33.342,33.342,0,0,0-.651-3.732c-.034-.452-.147-.6-.453-.684a2.73,2.73,0,0,0-.318-.056c-.613-.08-1.612.854-1.807,2.139l-.525-.433a1.267,1.267,0,0,0-.467-.212,4.553,4.553,0,0,0-2.456.194c-.986.468-.87,1.932-.053,2.143a.936.936,0,0,0,.493-.016,1.74,1.74,0,0,1,.919-.032c.84.218,1.453,1.181,1.777,2.924.2,1.077.474,1.887.566,2.375a15.213,15.213,0,0,0-4.944,4.324,4.147,4.147,0,0,1-2.892.469,1.91,1.91,0,0,1-1.456-1.294c-.426-1.717.578-2.979,2.57-4.909a1.036,1.036,0,0,0-.487-1.607l-.044-.01a51.065,51.065,0,0,0-8.074-.512c-1.052-.031-1.63,1.433-1,1.981a6.527,6.527,0,0,0-3.363,1.805,8.753,8.753,0,0,0-2.377,4.155,2.619,2.619,0,0,0,.1,1.84,1.607,1.607,0,0,0,1.066.792,4.433,4.433,0,0,0,1.071.107l1.68.011.794.006.74.006.383,0,2.222.019h.061l.79.005.234,0,.625,0h.287l.785,0h1.023c1.661,0,3.5-.026,6.048-.078,1.6.112,2.118-1.547,3.722-1.638.2-.012.442-.023.679-.033l.383-.016c.185-.008.38-.014.577-.02l.392-.013c.254-.008.516-.014.779-.02l.3-.007c.33-.008.662-.013.993-.018l.509-.007.545-.007.5,0,.487,0h.478l.411,0,.422,0c.219,0,.433.006.607.011,1.3.035,1.988.208,1.1-2.178" transform="translate(-1268.233 -234)"></path>
	</g>
</svg>