<svg xmlns:ns="&amp;ns_sfw;" xmlns:dc="http://purl.org/dc/elements/1.1/" xmlns:cc="http://creativecommons.org/ns#" xmlns:rdf="http://www.w3.org/1999/02/22-rdf-syntax-ns#" xmlns:svg="http://www.w3.org/2000/svg" xmlns="http://www.w3.org/2000/svg" xml:space="preserve" enable-background="new 0 0 1920 1080" viewBox="0 0 533.25806 582.88702" height="582.88702" width="533.25806" y="0px" x="0px" id="Warstwa_1" version="1.1" class="injected-svg" data-src="/assets/icons/bk-logo.svg" xmlns:xlink="http://www.w3.org/1999/xlink"><defs id="defs4598"></defs>
<metadata id="metadata4559">
	<ns:sfw>
		<ns:slices></ns:slices>
		<ns:sliceSourceBounds bottomLeftOrigin="true" y="248.557" x="693.371" width="533.258" height="582.887"></ns:sliceSourceBounds>
	</ns:sfw>
<rdf:RDF><cc:Work rdf:about=""><dc:format>image/svg+xml</dc:format><dc:type rdf:resource="http://purl.org/dc/dcmitype/StillImage"></dc:type><dc:title></dc:title></cc:Work></rdf:RDF></metadata>
<g transform="translate(-693.37097,-248.557)" id="g4593">
	<path style="fill:#f5ebdc" id="path4561" d="m 1226.629,411.47 c 0,-17.917 -6.421,-37.424 -18.574,-56.412 -12.112,-18.923 -29.754,-36.877 -51.013,-51.926 -35.184,-24.896 -97.926,-54.575 -197.043,-54.575 -99.9,0 -162.632,29.697 -197.664,54.609 -21.161,15.05 -38.688,33.037 -50.685,52.018 -11.959,18.919 -18.278,38.384 -18.278,56.286 v 319.014 c 0,24.9 19.045,51.115 49.687,68.399 40.915,23.127 103.765,32.561 216.94,32.561 113.185,0 176.036,-9.434 216.919,-32.547 30.662,-17.294 49.711,-43.509 49.711,-68.413 z"></path>
	<path style="fill:#d62300" id="path4563" d="m 1185.777,565.583 c 5.396,4.01 8.786,9.865 8.786,17.412 0,10.173 -8.328,20.192 -20.651,20.192 -10.636,0 -13.103,-7.707 -28.356,-7.707 -12.487,0 -28.668,8.938 -28.668,33.44 0,22.037 11.871,33.904 29.283,33.904 5.24,0 10.173,-2.617 10.173,-6.627 0,-3.23 -2.933,-4.468 -7.091,-4.468 -8.478,0 -19.878,-6.012 -19.878,-18.647 0,-13.868 10.478,-20.187 24.036,-20.187 h 7.557 c 26.04,0 38.986,14.329 38.986,34.982 0,32.672 -22.961,55.019 -59.179,55.019 -34.52,0 -69.502,-23.581 -69.502,-73.977 0,-52.702 34.982,-75.361 70.894,-75.361 20.028,0.002 34.212,5.09 43.61,12.025"></path>
	<path style="fill:#d62300" id="path4565" d="m 980.499,642.948 c 0,-2.772 0.921,-4.012 2.616,-4.012 1.237,0 2.16,0.772 3.237,2.931 l 21.424,41.61 c 8.167,15.873 16.953,19.57 26.356,19.57 16.181,0 25.115,-12.173 25.115,-27.427 v -95.24 c 0,-14.954 -8.626,-26.819 -24.503,-26.819 -15.875,0 -24.505,11.865 -24.505,26.819 v 33.288 c 0,2.772 -0.919,4.002 -2.622,4.002 -1.229,0 -2.152,-0.771 -3.231,-2.929 l -21.422,-41.608 c -8.169,-15.871 -16.641,-19.572 -26.355,-19.572 -16.176,0 -25.117,12.171 -25.117,27.434 v 95.24 c 0,14.947 8.627,26.813 24.503,26.813 15.876,0 24.504,-11.865 24.504,-26.813 z"></path>
	<path style="fill:#d62300" id="path4567" d="m 770.441,675.772 v -21.888 c 0,-1.844 0.77,-3.229 2.622,-3.229 2.466,0 3.08,2.467 3.695,3.695 3.548,8.479 13.867,26.505 23.425,37.143 6.477,7.089 14.489,11.557 22.967,11.557 14.332,0 26.35,-12.481 26.35,-25.89 0,-8.322 -3.54,-14.487 -10.325,-21.883 -8.633,-9.402 -18.799,-21.733 -22.501,-27.433 -1.387,-2.156 -1.536,-3.546 -1.536,-4.16 0,-1.699 0.922,-2.929 2.772,-4.622 4.317,-4.012 14.947,-14.025 20.809,-23.117 4.467,-6.935 6.313,-13.253 6.313,-18.493 0,-13.411 -12.175,-23.889 -25.428,-23.889 -8.476,0 -16.49,4.774 -21.888,13.559 -7.24,11.715 -15.868,25.277 -21.417,30.673 -1.385,1.387 -2.162,1.695 -3.236,1.695 -1.853,0 -2.622,-1.239 -2.622,-3.241 v -15.41 c 0,-15.102 -8.936,-27.275 -25.118,-27.275 -16.334,0 -25.119,12.174 -25.119,27.275 v 94.934 c 0,15.104 8.785,27.277 25.119,27.277 16.183,0 25.118,-12.173 25.118,-27.278"></path>
	<path style="fill:#ff8732" id="path4569" d="m 732.836,718.616 c -8.936,0 -12.943,4.318 -12.943,11.865 0,13.255 12.177,31.754 36.217,45.313 40.073,22.652 108.8,29.129 203.89,29.129 95.09,0 163.826,-6.477 203.891,-29.129 24.047,-13.559 36.222,-32.058 36.222,-45.313 0,-7.547 -4.004,-11.865 -12.948,-11.865 z"></path>
	<path style="fill:#ff8732" id="path4571" d="m 1187.164,424.414 c 8.94,0 12.946,-4.624 12.946,-12.944 0,-49.315 -75.67,-136.39 -240.11,-136.39 -165.978,0 -240.109,87.074 -240.109,136.39 0,8.32 4.011,12.944 12.945,12.944 z"></path>
	<path style="fill:#d62300" id="path4573" d="m 837.94,544.623 c 24.969,0 38.227,-14.947 38.227,-33.753 v -51.93 c 0,-9.251 -5.396,-16.65 -15.26,-16.65 -9.865,0 -15.255,7.399 -15.255,16.65 v 50.236 c 0,3.701 -2.158,8.013 -7.712,8.013 -5.547,0 -7.397,-4.312 -7.397,-8.013 V 458.94 c 0,-9.251 -5.547,-16.65 -15.412,-16.65 -9.857,0 -15.253,7.399 -15.253,16.65 v 51.93 c 0,18.806 13.101,33.753 38.062,33.753"></path>
	<path style="fill:#d62300" id="path4575" d="m 1099.474,505.323 c 7.398,0 13.26,-4.469 13.26,-12.33 0,-7.854 -5.861,-12.323 -13.26,-12.323 h -10.628 c -2.625,0 -3.862,-1.545 -3.862,-3.547 v -2.465 c 0,-2.008 1.237,-3.545 3.862,-3.545 h 13.864 c 8.628,0 15.41,-5.089 15.41,-14.333 0,-9.093 -6.782,-14.182 -15.41,-14.182 h -29.127 c -12.175,0 -18.036,7.091 -18.036,16.649 v 67.963 c 0,9.549 5.861,16.64 18.036,16.64 h 29.127 c 8.628,0 15.41,-5.081 15.41,-14.331 0,-9.093 -6.782,-14.176 -15.41,-14.176 h -13.864 c -2.625,0 -3.862,-1.543 -3.862,-3.545 v -2.931 c 0,-2.002 1.237,-3.545 3.862,-3.545 h 10.628 z"></path>
	<path style="fill:#d62300" id="path4577" d="m 1038.907,449.998 c 3.545,2.772 5.855,6.782 5.855,12.022 0,7.091 -5.55,13.867 -13.717,13.867 -7.087,0 -8.78,-5.241 -18.956,-5.241 -8.323,0 -19.109,6.164 -19.109,23.12 0,15.26 7.861,23.423 19.422,23.423 3.695,0 6.933,-1.846 6.933,-4.624 0,-2.151 -1.85,-3.083 -4.78,-3.083 -5.697,0 -13.252,-4.159 -13.252,-12.787 0,-9.716 7.088,-14.025 16.183,-14.025 h 4.931 c 17.262,0 25.892,9.863 25.892,24.196 0,22.503 -15.254,37.913 -39.45,37.913 -22.968,0 -46.233,-16.183 -46.233,-51.013 0,-36.372 23.266,-52.089 47.156,-52.089 13.565,10e-4 22.656,3.547 29.125,8.321"></path>
	<path style="fill:#d62300" id="path4579" d="m 913.614,582.688 c 0,-16.183 -9.399,-29.127 -26.663,-29.127 -17.261,0 -26.663,12.944 -26.663,29.127 v 91.238 c 0,16.178 9.402,29.127 26.663,29.127 17.264,0 26.663,-12.949 26.663,-29.127 z"></path>
	<path style="fill:#d62300" id="path4581" d="m 782.614,491.456 c -0.765,-0.62 -1.537,-1.237 -1.537,-1.852 0,-0.771 0.464,-1.079 1.232,-2.002 2.928,-3.396 5.853,-8.784 5.853,-16.647 0,-18.491 -12.479,-28.354 -31.903,-28.354 h -18.332 c -12.175,0 -18.036,7.091 -18.036,16.646 v 67.963 c 0,9.553 5.861,16.642 18.036,16.642 h 21.728 c 20.495,0 32.98,-13.717 32.98,-30.822 0,-13.718 -8.167,-20.037 -10.021,-21.574 m -35.597,-22.345 c 0,-2.008 1.229,-3.545 3.853,-3.545 h 2.002 c 6.632,0 8.634,4.616 8.634,8.628 0,3.693 -2.002,8.934 -8.634,8.934 h -2.002 c -2.623,0 -3.853,-1.537 -3.853,-3.537 z m 6.627,51.624 h -2.774 c -2.623,0 -3.853,-1.537 -3.853,-3.546 v -12.017 c 0,-2.008 1.229,-3.545 3.853,-3.545 h 2.774 c 7.398,0 9.559,4.933 9.559,9.398 -10e-4,4.007 -2.161,9.71 -9.559,9.71"></path>
	<path style="fill:#d62300" id="path4583" d="m 956.148,517.811 c -4.467,-5.861 -8.478,-10.942 -10.479,-16.341 -0.466,-1.229 -0.152,-2.309 1.237,-3.388 4.775,-3.701 10.32,-11.865 10.32,-24.811 0,-19.578 -16.175,-30.673 -35.754,-30.673 H 904.06 c -12.182,0 -18.034,7.091 -18.034,16.647 v 68.736 c 0,9.242 5.396,16.641 15.26,16.641 9.864,0 15.254,-7.398 15.254,-16.641 v -16.34 c 0,-2.002 0.929,-2.931 2.465,-2.931 1.853,0 2.468,1.079 2.775,2.931 1.386,7.863 5.088,18.489 9.248,23.889 5.239,6.932 10.172,9.092 15.103,9.092 8.016,0 14.95,-6.317 14.95,-14.181 0,-5.24 -2.16,-9.091 -4.933,-12.63 m -35.291,-32.058 h -2.16 c -2.614,0 -3.85,-1.544 -3.85,-3.546 v -10.481 c 0,-2.002 1.235,-3.541 3.85,-3.541 h 2.16 c 6.471,0 8.472,4.622 8.472,8.626 0,3.859 -2.001,8.942 -8.472,8.942"></path>
	<path style="fill:#d62300" id="path4585" d="m 1195.18,517.811 c -5.24,-6.634 -8.478,-10.942 -10.481,-16.341 -0.465,-1.229 -0.15,-2.309 1.237,-3.388 4.774,-3.701 10.319,-11.865 10.319,-24.811 0,-19.578 -16.181,-30.673 -35.753,-30.673 h -17.41 c -12.182,0 -18.037,7.091 -18.037,16.647 v 68.736 c 0,9.242 5.397,16.641 15.263,16.641 9.866,0 15.252,-7.398 15.252,-16.641 v -16.34 c 0,-2.002 0.933,-2.931 2.466,-2.931 1.854,0 2.467,1.079 2.774,2.931 1.386,7.863 5.089,18.489 9.251,23.889 5.239,6.932 10.172,9.092 15.1,9.092 8.018,0 14.952,-6.317 14.952,-14.181 -10e-4,-5.24 -2.163,-9.091 -4.933,-12.63 m -35.29,-32.058 h -2.162 c -2.612,0 -3.85,-1.544 -3.85,-3.546 v -10.481 c 0,-2.002 1.237,-3.541 3.85,-3.541 h 2.162 c 6.468,0 8.47,4.622 8.47,8.626 -10e-4,3.859 -2.003,8.942 -8.47,8.942"></path>
	<path style="fill:#d62300" id="path4587" d="m 1195.533,695.262 c -4.394,0 -7.608,3.466 -7.608,7.607 0,4.397 3.215,7.661 7.608,7.661 4.395,0 7.607,-3.211 7.607,-7.661 10e-4,-4.141 -3.212,-7.607 -7.607,-7.607 m 0,13.718 c -2.949,0 -5.951,-2.126 -5.951,-6.111 0,-3.825 3.002,-6.056 5.951,-6.056 2.948,0 5.952,2.23 5.952,6.056 0,3.985 -3.004,6.111 -5.952,6.111"></path>
	<path style="fill:#d62300" id="path4589" d="m 1196.515,703.754 c 1.558,-0.264 2.223,-1.296 2.223,-2.484 0,-1.401 -1.185,-2.437 -2.896,-2.437 h -2.174 c -0.41,0 -0.771,0.414 -0.771,0.832 v 6.464 c 0,0.42 0.36,0.778 0.771,0.778 0.473,0 0.831,-0.358 0.831,-0.778 v -2.225 h 0.256 l 2.284,2.695 c 0.149,0.2 0.358,0.358 0.669,0.358 0.465,0 0.774,-0.306 0.774,-0.778 0,-0.15 -0.104,-0.359 -0.26,-0.516 z m -2.017,-1.296 v -2.124 h 1.299 c 0.821,0 1.285,0.365 1.285,1.039 0,0.622 -0.515,1.085 -1.443,1.085 z"></path>
	<rect style="fill:none" id="rect4591" height="582.88702" width="533.258" y="248.55701" x="693.37097"></rect>
</g>
</svg>